<svg width="200" height="173" viewBox="0 0 200 173" fill="none" xmlns="http://www.w3.org/2000/svg">
<path d="M83.7311 58.5446C86.7654 77.2357 74.0963 94.8513 55.4339 97.8902C36.7715 100.929 19.1828 88.2406 16.1485 69.5496C13.1143 50.8586 25.7834 33.2429 44.4458 30.204C63.1082 27.165 80.6968 39.8536 83.7311 58.5446Z" fill="url(#paint0_linear)"/>
<path d="M40.4572 31.1406C51.609 33.3198 65.691 34.5742 83.1523 56.1414C83.5177 55.8975 81.4999 48.7651 84.1946 46.5481C87.524 43.8089 94.5874 45.8468 95.731 43.4345C97.5265 37.3839 59.475 25.4394 40.4572 31.1406Z" fill="url(#paint1_linear)"/>
<path d="M106.99 39.5964C106.406 18.3208 123.153 0.599542 144.396 0.014834C165.639 -0.569873 183.333 16.2034 183.917 37.479C184.501 58.7545 167.753 76.4758 146.51 77.0605C125.267 77.6452 107.573 60.8719 106.99 39.5964Z" fill="url(#paint2_linear)"/>
<path d="M151.094 76.6152C138.998 72.5143 123.499 69.004 107.275 42.3597C106.831 42.5766 108.012 50.8243 104.679 52.8895C100.56 55.4411 92.9973 52.1111 91.3626 54.6267C88.4573 61.0971 129.057 80.1121 151.094 76.6152Z" fill="url(#paint3_linear)"/>
<path d="M102.401 116.903C98.1638 116.903 93.6441 118.316 91.1017 121.282C90.9604 118.457 89.2655 116.903 86.4407 116.903C83.1921 116.903 81.6384 118.598 81.6384 121.847V167.47C81.6384 171.001 83.7571 172.696 86.8644 172.696C90.113 172.696 92.0904 170.86 92.0904 167.47V152.78C94.4915 155.746 98.4463 156.594 102.684 156.594C113.842 156.594 118.927 147.13 118.927 136.961C118.927 123.26 111.158 116.903 102.401 116.903ZM100 148.26C93.5028 148.402 91.5254 141.904 91.5254 136.537C91.5254 130.604 93.7853 125.096 100 125.096C105.65 125.237 108.333 130.322 108.333 136.537C108.475 141.48 106.78 148.26 100 148.26ZM145.904 116.903C141.667 116.903 137.147 118.316 134.605 121.282C134.322 118.457 132.768 116.903 129.802 116.903C126.554 116.903 125 118.598 125 121.847V167.47C125 171.001 127.119 172.696 130.226 172.696C133.475 172.696 135.452 170.86 135.452 167.47V152.78C137.853 155.746 141.808 156.594 146.045 156.594C157.203 156.594 162.288 147.13 162.288 136.961C162.429 123.26 154.661 116.903 145.904 116.903ZM143.503 148.26C137.006 148.402 135.028 141.904 135.028 136.537C135.028 130.604 137.288 125.096 143.503 125.096C149.153 125.237 151.836 130.322 151.836 136.537C151.836 141.48 150.282 148.26 143.503 148.26ZM73.3051 145.435V127.779C73.3051 120.152 66.2429 116.903 56.2147 116.903C45.339 116.903 39.4068 122.271 39.4068 126.508C39.4068 128.627 41.2429 130.604 43.9266 130.604C48.1638 130.604 48.3051 124.813 56.0734 124.813C59.6045 124.813 62.7119 126.085 62.7119 129.192C62.7119 132.158 60.7345 132.864 58.1921 133.147L51.6949 133.853C45.1977 134.559 37.0056 137.384 37.0056 146C37.0056 153.486 44.0678 156.453 50.2825 156.735C56.7797 157.018 61.2994 155.04 64.4068 152.639C64.9717 155.04 66.6667 156.735 70.0565 156.735C72.4576 156.735 74.5763 155.04 74.5763 152.639C74.5763 150.944 73.3051 149.814 73.3051 145.435ZM62.7119 138.797C62.7119 145.435 59.1808 149.673 53.3898 149.673C49.7175 149.673 47.5989 147.695 47.5989 145.294C47.5989 142.045 50 140.774 54.3785 140.068L58.1921 139.503C59.4633 139.221 61.5819 138.938 62.7119 137.808V138.797ZM186.864 160.831C184.322 168.035 181.497 171.849 174.859 171.849H174.294C169.633 171.849 167.655 169.589 167.655 167.046C167.655 164.221 169.633 162.809 172.458 162.809H173.164C174.576 162.809 176.13 162.668 177.26 159.419L177.684 158.289L166.667 126.791C165.819 124.248 165.395 123.118 165.395 121.847C165.395 119.022 167.655 116.762 170.48 116.762C173.305 116.762 175.282 118.316 175.847 120.717L182.627 145.435H182.768L189.548 120.717C190.254 118.316 192.09 116.762 194.915 116.762C197.74 116.762 200 118.881 200 121.847C200 123.118 199.576 124.248 198.729 126.791L186.864 160.831ZM21.6102 160.831C19.0678 168.035 16.2429 171.849 9.60452 171.849H8.89831C4.23729 171.849 2.25989 169.589 2.25989 167.046C2.25989 164.221 4.23729 162.809 7.06215 162.809H7.76836C9.18079 162.809 10.7345 162.668 11.8644 159.419L12.2881 158.289L1.27119 126.791C0.423729 124.39 0 123.118 0 121.988C0 119.163 2.25989 116.903 5.08475 116.903C7.9096 116.903 9.88701 118.457 10.452 120.858L17.2316 145.577H17.3729L24.1525 120.858C24.8588 118.457 26.6949 116.903 29.5198 116.903C32.3446 116.903 34.6045 119.022 34.6045 121.988C34.6045 123.26 34.1808 124.39 33.3333 126.932L21.6102 160.831Z" fill="#004C97"/>
<defs>
<linearGradient id="paint0_linear" x1="29.4049" y1="36.8248" x2="40.0278" y2="102.061" gradientUnits="userSpaceOnUse">
<stop stop-color="#2CCAFE"/>
<stop offset="1" stop-color="#0A91E7"/>
</linearGradient>
<linearGradient id="paint1_linear" x1="77.9361" y1="32.0264" x2="65.5415" y2="55.3682" gradientUnits="userSpaceOnUse">
<stop stop-color="#2CCAFE"/>
<stop offset="1" stop-color="#0A91E7"/>
</linearGradient>
<linearGradient id="paint2_linear" x1="164.255" y1="71.9426" x2="162.211" y2="-2.32005" gradientUnits="userSpaceOnUse">
<stop stop-color="#FF8741"/>
<stop offset="1" stop-color="#FFA537"/>
</linearGradient>
<linearGradient id="paint3_linear" x1="118.663" y1="79.4355" x2="128.129" y2="62.2649" gradientUnits="userSpaceOnUse">
<stop stop-color="#FF8043"/>
<stop offset="1" stop-color="#FFA636"/>
</linearGradient>
</defs>
</svg>
